<svg xmlns="http://www.w3.org/2000/svg" width="359" height="378" viewBox="0 0 359 378"><path d="M82.13,137.19c-6.5,3.44-11.73,9.13-15.44,15.4a46.24,46.24,0,0,0-6.56,21.25c-.34,7.43.9,15.56,4.46,22.15a23.84,23.84,0,0,0,20,12.38c17.29,1,30.45-13.94,37.82-27.9,4-7.55,6.75-16.12,6.31-24.74a34.43,34.43,0,0,0-8.77-21.87c-6.11-6.55-15.08-9.22-23.75-10.08a51.91,51.91,0,0,0-24.76,3.72,55.45,55.45,0,0,0-6.26,3,4.7,4.7,0,1,0,4.75,8.12c.8-.45,1.61-.89,2.43-1.3.38-.19.77-.38,1.15-.55s1.41-.63.63-.3a46.91,46.91,0,0,1,5.42-1.88,49.32,49.32,0,0,1,5.39-1.19c.24,0,1.63-.2.64-.1l1.27-.14c1-.09,2-.16,3-.19a48.39,48.39,0,0,1,5.52.12l1.27.12.85.1c-.08,0-.75-.12-.2,0,.91.16,1.81.3,2.72.49a38.71,38.71,0,0,1,5.68,1.62l.61.24-.11,0c.4.18.8.36,1.19.56a25.94,25.94,0,0,1,2.66,1.51c.41.27.8.56,1.2.84-.66-.47-.08-.05.21.2a22.59,22.59,0,0,1,1.87,1.79c.25.27.5.55.74.83s.66.86.19.2c.5.7,1,1.41,1.45,2.15s.8,1.39,1.16,2.12c.16.33.31.67.47,1s-.09-.22-.11-.27c.09.24.19.47.28.7a31.84,31.84,0,0,1,1.4,4.87c.07.37.14.74.2,1.12a2.11,2.11,0,0,1,.09.55s-.1-.88,0-.31c.08.88.17,1.75.2,2.63a35.16,35.16,0,0,1-.22,5.33c-.1.92.09-.47-.07.45-.07.42-.14.84-.22,1.26-.2,1-.42,1.95-.68,2.92a52.16,52.16,0,0,1-1.78,5.29s-.28.7-.09.23-.14.32-.19.43c-.17.4-.35.79-.54,1.18-.43.92-.88,1.82-1.35,2.71-.89,1.66-1.84,3.27-2.85,4.85s-2,3-3.09,4.48c-.17.23-.92,1.18-.38.51-.25.32-.5.64-.76.95q-.9,1.11-1.86,2.16a46.76,46.76,0,0,1-3.74,3.71c-.35.31-.71.61-1.07.91l-.47.38s.59-.43.15-.12c-.76.55-1.51,1.1-2.31,1.6s-1.38.83-2.09,1.21q-.61.33-1.26.63l-.54.25c-.61.29.72-.26.07,0a32.5,32.5,0,0,1-4.77,1.36c-.41.08-1.4.16-.45.09-.38,0-.76.08-1.14.1a26.19,26.19,0,0,1-2.66,0l-1.13-.08c-.94-.07.68.14-.25,0a24.79,24.79,0,0,1-2.55-.59c-.42-.12-.83-.26-1.24-.41l-.52-.2s.73.35.27.1c-.77-.43-1.55-.79-2.28-1.28-.15-.1-1-.75-.59-.4s-.38-.34-.51-.46a17.53,17.53,0,0,1-1.74-1.81c-.12-.13-.23-.27-.34-.41,0,0,.48.68.19.24s-.48-.68-.7-1a22.52,22.52,0,0,1-1.15-2c-.19-.38-.36-.76-.54-1.14.36.74.08.18-.07-.23-.3-.8-.57-1.61-.8-2.44a40.23,40.23,0,0,1-1-4.73c-.16-.94.07.7,0-.24,0-.44-.1-.87-.14-1.31-.08-.86-.14-1.73-.19-2.6a41.17,41.17,0,0,1,0-4.58,13.93,13.93,0,0,1,.21-2.24c-.18.8,0,.38,0-.14s.14-.81.22-1.22A40.49,40.49,0,0,1,71.28,165c.22-.69.47-1.37.73-2.06l.27-.68c0-.09.27-.66,0-.11s0,0,.05-.11l.3-.67a47.33,47.33,0,0,1,2.23-4.23c.41-.68.84-1.35,1.28-2l.73-1,.33-.44c.06-.09.55-.73.18-.25s.31-.38.42-.52l.82-1c.51-.58,1-1.14,1.58-1.69s1.1-1.07,1.68-1.58c.26-.23.52-.46.79-.68l.41-.33c.44-.37-.71.51,0,0a32.24,32.24,0,0,1,3.74-2.36,4.73,4.73,0,0,0,1.69-6.43,4.79,4.79,0,0,0-6.43-1.69Z" fill="#ff6b60"/><rect x="49.5" y="130.25" width="87" height="71" fill="none" stroke="#000" stroke-linecap="round" stroke-linejoin="round"/><rect x="8" y="348.75" width="351" height="29" fill="#ddd"/><rect x="212" y="226.75" width="265" height="29" transform="translate(585.75 -103.25) rotate(90)" fill="#ddd"/><rect x="0.5" y="99.25" width="343" height="265" fill="none" stroke="#000" stroke-miterlimit="10"/><polyline points="110 108.75 181.39 0.75 249.5 108.75" fill="none" stroke="#000" stroke-linecap="round" stroke-linejoin="round"/><path d="M176.78,165.94h6.27l-8.86,16.54v9.93h-5.53v-9.93l-9.15-16.54H166l5.5,11.53Z"/><path d="M205.78,170.62h-14v5.62h12.86v4.6H191.77v6.81h14.66v4.76H186.37V165.94h19.41Z"/><path d="M218.31,165.94h6.26l9.36,26.47h-6L226.19,187h-9.75l-1.8,5.44h-5.78Zm-.37,16.46h6.78L221.38,172Z"/><path d="M254.26,166.62a6.66,6.66,0,0,1,2.48,1.85,8.24,8.24,0,0,1,1.33,2.23,7.53,7.53,0,0,1,.49,2.78,8,8,0,0,1-.95,3.71,5.35,5.35,0,0,1-3.15,2.57,5,5,0,0,1,2.6,2.1,8.68,8.68,0,0,1,.76,4.14v1.77a13,13,0,0,0,.15,2.46,2.15,2.15,0,0,0,1,1.51v.67h-6.11c-.16-.59-.28-1.06-.36-1.42a13.15,13.15,0,0,1-.23-2.28l0-2.46c0-1.69-.31-2.82-.87-3.38a4.47,4.47,0,0,0-3.15-.84h-5.4v10.38h-5.41V165.94h12.66A11.43,11.43,0,0,1,254.26,166.62Zm-11.43,3.91v7.12h5.95a6.27,6.27,0,0,0,2.66-.44,3,3,0,0,0,1.57-3c0-1.6-.51-2.68-1.52-3.23a5.5,5.5,0,0,0-2.56-.47Z"/><path d="M267.84,184.24a5.4,5.4,0,0,0,1,2.71q1.38,1.63,4.71,1.63a10.1,10.1,0,0,0,3.25-.43,3.08,3.08,0,0,0,2.36-3.07,2.26,2.26,0,0,0-1.16-2,12.4,12.4,0,0,0-3.67-1.24l-2.87-.63a17.79,17.79,0,0,1-5.8-2,6.44,6.44,0,0,1-2.68-5.72,7.63,7.63,0,0,1,2.62-5.91q2.63-2.36,7.69-2.35a11.81,11.81,0,0,1,7.23,2.21,7.91,7.91,0,0,1,3.13,6.44h-5.31a3.78,3.78,0,0,0-2.14-3.39,7.19,7.19,0,0,0-3.29-.67,6.32,6.32,0,0,0-3.5.86,2.74,2.74,0,0,0-1.31,2.41,2.27,2.27,0,0,0,1.29,2.12,15.54,15.54,0,0,0,3.52,1.09l4.64,1.1a11.88,11.88,0,0,1,4.58,1.92,6.49,6.49,0,0,1,2.37,5.41,7.6,7.6,0,0,1-2.81,6q-2.81,2.4-7.92,2.4t-8.22-2.36a7.82,7.82,0,0,1-3-6.49Z"/><path d="M38.67,246.89a5.37,5.37,0,0,0,1,2.71q1.38,1.64,4.72,1.64a10.32,10.32,0,0,0,3.24-.43A3.09,3.09,0,0,0,50,247.74a2.26,2.26,0,0,0-1.16-2,12.59,12.59,0,0,0-3.68-1.24l-2.86-.63a17.77,17.77,0,0,1-5.81-2,6.46,6.46,0,0,1-2.67-5.73,7.62,7.62,0,0,1,2.61-5.91c1.75-1.56,4.31-2.35,7.69-2.35A11.77,11.77,0,0,1,51.35,230a7.9,7.9,0,0,1,3.14,6.44H49.17a3.79,3.79,0,0,0-2.14-3.4,7.33,7.33,0,0,0-3.29-.66,6.32,6.32,0,0,0-3.5.86,2.73,2.73,0,0,0-1.31,2.41,2.28,2.28,0,0,0,1.29,2.12,16.49,16.49,0,0,0,3.52,1.09l4.64,1.1A11.81,11.81,0,0,1,53,241.92a6.45,6.45,0,0,1,2.37,5.4,7.61,7.61,0,0,1-2.81,6c-1.86,1.6-4.51,2.4-7.92,2.4s-6.22-.79-8.22-2.37a7.78,7.78,0,0,1-3-6.49Z"/><path d="M64.25,255.06H58.76V228.59h5.49Z"/><path d="M69.34,228.59h5.79l10.51,18.46V228.59h5.15v26.47H85.26L74.49,236.28v18.78H69.34Z"/><path d="M98.51,231.36a10.9,10.9,0,0,1,8.14-3.27c4.4,0,7.63,1.46,9.66,4.38a9.49,9.49,0,0,1,1.81,4.94h-5.53a7.45,7.45,0,0,0-1.35-2.87,5.47,5.47,0,0,0-4.38-1.73,5.37,5.37,0,0,0-4.66,2.44,11.83,11.83,0,0,0-1.71,6.88c0,3,.6,5.2,1.8,6.67a5.65,5.65,0,0,0,4.58,2.22,5.2,5.2,0,0,0,4.34-1.9,8.49,8.49,0,0,0,1.37-3.07h5.49a11.91,11.91,0,0,1-3.63,7A10.62,10.62,0,0,1,107,255.8a11.22,11.22,0,0,1-8.88-3.66q-3.24-3.69-3.24-10.1Q94.83,235.11,98.51,231.36Z"/><path d="M142.12,233.28h-14v5.62H141v4.6H128.11v6.8h14.65v4.76h-20V228.59h19.41Z"/><path d="M172.8,229.17a8.72,8.72,0,0,1,4.51,3.36,11.85,11.85,0,0,1,1.89,4.27,20.8,20.8,0,0,1,.5,4.38,17.6,17.6,0,0,1-2.12,8.94,9.57,9.57,0,0,1-8.88,4.94H157.29V228.59H168.7A14.12,14.12,0,0,1,172.8,229.17Zm-10.14,4v17.28h5.11a5.53,5.53,0,0,0,5.47-3.87,13.64,13.64,0,0,0,.84-5,12.41,12.41,0,0,0-1.27-6.21q-1.26-2.16-5-2.16Z"/><path d="M204.23,252.71q-3,3.09-8.67,3.09t-8.68-3.09q-4-3.79-4-10.92t4-10.92q3-3.08,8.68-3.08t8.67,3.08q4,3.65,4,10.92T204.23,252.71Zm-3.46-4q1.93-2.43,1.93-6.9t-1.93-6.88a6.27,6.27,0,0,0-5.21-2.44,6.41,6.41,0,0,0-5.25,2.43q-2,2.41-1.95,6.89t1.95,6.9a6.43,6.43,0,0,0,5.25,2.42A6.31,6.31,0,0,0,200.77,248.69Z"/><path d="M230,228.59h8v26.47h-5.15v-17.9c0-.52,0-1.24,0-2.16s0-1.65,0-2.15l-5,22.21h-5.38l-5-22.21c0,.5,0,1.22,0,2.15s0,1.64,0,2.16v17.9h-5.15V228.59h8l4.82,20.82Z"/><path d="M250.66,228.59h6.26l9.36,26.47h-6l-1.74-5.44h-9.75L247,255.06h-5.79Zm-.37,16.47h6.78l-3.34-10.41Z"/><path d="M274.7,255.06h-5.5V228.59h5.5Z"/><path d="M279.78,228.59h5.8l10.5,18.46V228.59h5.16v26.47h-5.53l-10.78-18.78v18.78h-5.15Z"/><path d="M38.28,286.59l3.49,15.16.76,4.22.77-4.13,3-15.25h5.83l3.15,15.16.8,4.22.82-4.06,3.53-15.32h5.63L58.6,313.06H53.31l-3.2-15.48-.93-5.11-.93,5.11-3.2,15.48H39.91l-7.5-26.47Z"/><path d="M89,291.28H75v5.62H87.81v4.6H75v6.8H89.61v4.76H69.55V286.59H89Z"/><path d="M93.83,286.59h5.8l10.5,18.46V286.59h5.16v26.47h-5.53L99,294.28v18.78H93.83Z"/><path d="M139.71,286.59v4.69h-7.92v21.78h-5.57V291.28h-8v-4.69Z"/><path d="M153.16,286.59h5.62v16.26a9.13,9.13,0,0,0,.65,4c.66,1.49,2.12,2.23,4.36,2.23s3.68-.74,4.35-2.23a9.16,9.16,0,0,0,.64-4V286.59h5.62v16.27a13.7,13.7,0,0,1-1.3,6.58q-2.44,4.31-9.31,4.31t-9.32-4.31a13.69,13.69,0,0,1-1.31-6.58Z"/><path d="M179.63,286.59h5.8l10.5,18.46V286.59h5.16v26.47h-5.53l-10.78-18.78v18.78h-5.15Z"/><path d="M206.28,286.59h5.62v16.26a9.16,9.16,0,0,0,.64,4q1,2.24,4.37,2.23t4.35-2.23a9.16,9.16,0,0,0,.64-4V286.59h5.62v16.27a13.69,13.69,0,0,1-1.31,6.58q-2.43,4.31-9.3,4.31t-9.32-4.31a13.58,13.58,0,0,1-1.31-6.58Z"/><path d="M236.82,304.89a5.36,5.36,0,0,0,1,2.71q1.38,1.63,4.71,1.64a10.35,10.35,0,0,0,3.25-.43,3.08,3.08,0,0,0,2.36-3.07,2.25,2.25,0,0,0-1.15-2,12.59,12.59,0,0,0-3.68-1.24l-2.86-.63a17.77,17.77,0,0,1-5.81-2,6.46,6.46,0,0,1-2.68-5.73,7.63,7.63,0,0,1,2.62-5.91c1.75-1.56,4.31-2.35,7.69-2.35a11.79,11.79,0,0,1,7.23,2.22,7.87,7.87,0,0,1,3.13,6.44h-5.31a3.79,3.79,0,0,0-2.14-3.4,7.33,7.33,0,0,0-3.29-.66,6.32,6.32,0,0,0-3.5.86,2.73,2.73,0,0,0-1.31,2.41,2.28,2.28,0,0,0,1.29,2.12,16.29,16.29,0,0,0,3.52,1.09l4.64,1.1a11.88,11.88,0,0,1,4.58,1.92,6.45,6.45,0,0,1,2.37,5.4,7.61,7.61,0,0,1-2.81,6q-2.81,2.4-7.92,2.4t-8.22-2.37a7.79,7.79,0,0,1-3-6.49Z"/><path d="M276.94,291.28h-14v5.62h12.86v4.6H262.93v6.8h14.66v4.76H257.53V286.59h19.41Z"/><path d="M297.41,287.17a8.76,8.76,0,0,1,4.51,3.36,11.66,11.66,0,0,1,1.88,4.27,20.2,20.2,0,0,1,.51,4.38,17.6,17.6,0,0,1-2.12,8.94,9.57,9.57,0,0,1-8.88,4.94H281.9V286.59h11.41A14.12,14.12,0,0,1,297.41,287.17Zm-10.14,4v17.28h5.1a5.51,5.51,0,0,0,5.47-3.87,13.63,13.63,0,0,0,.85-5,12.52,12.52,0,0,0-1.27-6.21q-1.28-2.16-5.05-2.16Z"/></svg>