<svg xmlns="http://www.w3.org/2000/svg" width="359" height="378" viewBox="0 0 359 378"><polyline points="110 108.75 181.94 1.98 249.5 108.75" fill="none" stroke="#000" stroke-linecap="round" stroke-linejoin="round"/><polygon points="348.5 99.25 355.88 111.08 355.88 375.33 9.54 375.33 0.5 368.25 348.2 368.58 348.5 99.25" fill="#f3f5f8"/><rect x="0.5" y="99.25" width="348" height="269" fill="#fff" stroke="#000" stroke-miterlimit="10"/><polyline points="348.5 99.25 355.88 111.08 355.88 375.33 9.54 375.33 0.5 368.25" fill="none" stroke="#000" stroke-miterlimit="10"/><path d="M185.07,174.41h6.27L182.49,191v9.93H177V191l-9.16-16.54h6.52l5.49,11.53Z"/><path d="M214.08,179.09h-14v5.63h12.86v4.59H200.07v6.81h14.65v4.76H194.66V174.41h19.42Z"/><path d="M226.6,174.41h6.26l9.36,26.47h-6l-1.75-5.44h-9.75l-1.79,5.44h-5.79Zm-.36,16.47H233l-3.35-10.42Z"/><path d="M262.55,175.09a6.58,6.58,0,0,1,2.48,1.85,8.24,8.24,0,0,1,1.33,2.23,7.33,7.33,0,0,1,.49,2.78,8,8,0,0,1-1,3.71,5.3,5.3,0,0,1-3.14,2.57,5,5,0,0,1,2.59,2.1,8.66,8.66,0,0,1,.77,4.14v1.77a13.29,13.29,0,0,0,.14,2.46,2.22,2.22,0,0,0,1,1.51v.67h-6.1c-.17-.59-.29-1.06-.36-1.42a13.15,13.15,0,0,1-.24-2.28l0-2.46c0-1.69-.32-2.82-.88-3.38a4.47,4.47,0,0,0-3.15-.84h-5.4v10.38h-5.4V174.41h12.66A11.33,11.33,0,0,1,262.55,175.09ZM251.12,179v7.12h5.95a6.42,6.42,0,0,0,2.66-.43,3,3,0,0,0,1.57-3c0-1.6-.5-2.68-1.51-3.23a5.53,5.53,0,0,0-2.56-.47Z"/><path d="M276.14,192.71a5.37,5.37,0,0,0,1,2.71q1.38,1.64,4.72,1.63a10,10,0,0,0,3.24-.43,3.08,3.08,0,0,0,2.37-3.07,2.28,2.28,0,0,0-1.16-2,12.48,12.48,0,0,0-3.68-1.24l-2.86-.63a17.86,17.86,0,0,1-5.81-2,6.45,6.45,0,0,1-2.67-5.72A7.62,7.62,0,0,1,273.9,176q2.63-2.36,7.69-2.35a11.83,11.83,0,0,1,7.23,2.21,7.92,7.92,0,0,1,3.14,6.44h-5.32a3.78,3.78,0,0,0-2.14-3.39,7.19,7.19,0,0,0-3.29-.67,6.32,6.32,0,0,0-3.5.86,2.74,2.74,0,0,0-1.3,2.41,2.26,2.26,0,0,0,1.28,2.12,16.32,16.32,0,0,0,3.52,1.1l4.65,1.09a11.82,11.82,0,0,1,4.57,1.92,6.49,6.49,0,0,1,2.37,5.41,7.58,7.58,0,0,1-2.8,6q-2.81,2.4-7.93,2.4t-8.22-2.36a7.81,7.81,0,0,1-3-6.49Z"/><path d="M47,255.36a5.33,5.33,0,0,0,1,2.71q1.37,1.64,4.71,1.64a10.32,10.32,0,0,0,3.24-.43,3.09,3.09,0,0,0,2.37-3.07,2.26,2.26,0,0,0-1.16-2,12.51,12.51,0,0,0-3.67-1.24l-2.87-.63a17.69,17.69,0,0,1-5.8-2,6.44,6.44,0,0,1-2.68-5.73,7.6,7.6,0,0,1,2.62-5.91c1.74-1.56,4.31-2.35,7.69-2.35a11.76,11.76,0,0,1,7.22,2.22A7.88,7.88,0,0,1,62.78,245H57.46a3.79,3.79,0,0,0-2.13-3.4,7.38,7.38,0,0,0-3.3-.66,6.28,6.28,0,0,0-3.49.86,2.72,2.72,0,0,0-1.31,2.41,2.28,2.28,0,0,0,1.29,2.12A16.14,16.14,0,0,0,52,247.37l4.65,1.1a11.94,11.94,0,0,1,4.58,1.92,6.49,6.49,0,0,1,2.36,5.4,7.6,7.6,0,0,1-2.8,6q-2.8,2.4-7.92,2.4t-8.23-2.37a7.81,7.81,0,0,1-3-6.49Z"/><path d="M72.55,263.53h-5.5V237.06h5.5Z"/><path d="M77.63,237.06h5.8l10.5,18.46V237.06h5.16v26.47H93.56L82.78,244.75v18.78H77.63Z"/><path d="M106.81,239.83a10.88,10.88,0,0,1,8.13-3.27q6.61,0,9.67,4.38a9.58,9.58,0,0,1,1.81,4.94h-5.53a7.45,7.45,0,0,0-1.36-2.87,6,6,0,0,0-9,.71c-1.14,1.62-1.7,3.91-1.7,6.88s.6,5.2,1.8,6.68a5.65,5.65,0,0,0,4.57,2.21,5.18,5.18,0,0,0,4.34-1.9,8.32,8.32,0,0,0,1.37-3.07h5.5a12,12,0,0,1-3.64,7,10.56,10.56,0,0,1-7.49,2.71,11.25,11.25,0,0,1-8.88-3.66q-3.23-3.69-3.23-10.1Q103.13,243.58,106.81,239.83Z"/><path d="M150.41,241.75h-14v5.62h12.86V252H136.4v6.8h14.66v4.76H131V237.06h19.41Z"/><path d="M181.09,237.64A8.72,8.72,0,0,1,185.6,241a11.52,11.52,0,0,1,1.89,4.27,20.2,20.2,0,0,1,.51,4.38,17.6,17.6,0,0,1-2.12,8.94,9.57,9.57,0,0,1-8.88,4.94H165.58V237.06H177A14,14,0,0,1,181.09,237.64Zm-10.14,4v17.28h5.11a5.52,5.52,0,0,0,5.47-3.86,13.72,13.72,0,0,0,.85-5.05,12.45,12.45,0,0,0-1.27-6.2q-1.28-2.18-5.05-2.17Z"/><path d="M212.52,261.18c-2,2.06-4.89,3.09-8.67,3.09s-6.67-1-8.67-3.09q-4-3.78-4-10.92c0-4.85,1.34-8.48,4-10.92q3-3.08,8.67-3.08c3.78,0,6.68,1,8.67,3.08,2.67,2.44,4,6.07,4,10.92S215.19,258.66,212.52,261.18Zm-3.45-4c1.28-1.62,1.93-3.92,1.93-6.9a10.86,10.86,0,0,0-1.93-6.88,6.3,6.3,0,0,0-5.22-2.44,6.37,6.37,0,0,0-5.24,2.43q-2,2.41-2,6.89t2,6.9a6.86,6.86,0,0,0,10.46,0Z"/><path d="M238.31,237.06h8v26.47h-5.16v-17.9c0-.51,0-1.24,0-2.16s0-1.65,0-2.15l-5,22.21h-5.37l-5-22.21c0,.5,0,1.22,0,2.15s0,1.65,0,2.16v17.9h-5.15V237.06h8.05l4.82,20.82Z"/><path d="M259,237.06h6.26l9.37,26.47h-6l-1.75-5.44h-9.75l-1.79,5.44H249.5Zm-.36,16.47h6.78L262,243.12Z"/><path d="M283,263.53h-5.5V237.06H283Z"/><path d="M288.07,237.06h5.8l10.51,18.46V237.06h5.15v26.47H304l-10.78-18.78v18.78h-5.15Z"/><path d="M46.57,295.06l3.5,15.16.76,4.22.76-4.13,3-15.25h5.84l3.14,15.16.81,4.22.82-4.06,3.52-15.32h5.64L66.9,321.53H61.6l-3.19-15.48-.94-5.11-.93,5.11-3.2,15.48H48.21L40.7,295.06Z"/><path d="M97.26,299.75h-14v5.62H96.11V310H83.25v6.8H97.9v4.76H77.84V295.06H97.26Z"/><path d="M102.12,295.06h5.8l10.51,18.46V295.06h5.15v26.47h-5.53l-10.77-18.78v18.78h-5.16Z"/><path d="M148,295.06v4.69h-7.92v21.78h-5.56V299.75h-8v-4.69Z"/><path d="M161.46,295.06h5.62v16.26a9.16,9.16,0,0,0,.64,4q1,2.24,4.36,2.23t4.35-2.23a9.13,9.13,0,0,0,.65-4V295.06h5.62v16.27a13.69,13.69,0,0,1-1.31,6.58q-2.44,4.3-9.31,4.31t-9.32-4.31a13.7,13.7,0,0,1-1.3-6.58Z"/><path d="M187.92,295.06h5.8l10.51,18.46V295.06h5.15v26.47h-5.53l-10.77-18.78v18.78h-5.16Z"/><path d="M214.57,295.06h5.62v16.26a9.13,9.13,0,0,0,.65,4c.66,1.49,2.12,2.23,4.36,2.23s3.68-.74,4.35-2.23a9.16,9.16,0,0,0,.64-4V295.06h5.63v16.27a13.69,13.69,0,0,1-1.31,6.58q-2.44,4.3-9.31,4.31t-9.32-4.31a13.69,13.69,0,0,1-1.31-6.58Z"/><path d="M245.12,313.36a5.33,5.33,0,0,0,1,2.71q1.38,1.64,4.72,1.64a10.32,10.32,0,0,0,3.24-.43,3.09,3.09,0,0,0,2.37-3.07,2.26,2.26,0,0,0-1.16-2,12.48,12.48,0,0,0-3.68-1.24l-2.86-.63a17.86,17.86,0,0,1-5.81-2,6.46,6.46,0,0,1-2.67-5.73,7.6,7.6,0,0,1,2.62-5.91c1.74-1.56,4.3-2.35,7.69-2.35a11.76,11.76,0,0,1,7.22,2.22,7.9,7.9,0,0,1,3.14,6.44h-5.32a3.81,3.81,0,0,0-2.13-3.4,7.41,7.41,0,0,0-3.3-.66,6.32,6.32,0,0,0-3.5.86,2.74,2.74,0,0,0-1.3,2.41,2.29,2.29,0,0,0,1.28,2.12,16.49,16.49,0,0,0,3.52,1.09l4.65,1.1a11.94,11.94,0,0,1,4.58,1.92,6.49,6.49,0,0,1,2.36,5.4,7.6,7.6,0,0,1-2.8,6q-2.81,2.4-7.93,2.4t-8.22-2.37a7.81,7.81,0,0,1-3-6.49Z"/><path d="M285.23,299.75h-14v5.62h12.85V310H271.23v6.8h14.65v4.76H265.82V295.06h19.41Z"/><path d="M305.7,295.64a8.72,8.72,0,0,1,4.51,3.36,11.85,11.85,0,0,1,1.89,4.27,20.8,20.8,0,0,1,.5,4.38,17.6,17.6,0,0,1-2.12,8.94,9.57,9.57,0,0,1-8.88,4.94H290.19V295.06H301.6A14.12,14.12,0,0,1,305.7,295.64Zm-10.14,4v17.28h5.11a5.51,5.51,0,0,0,5.46-3.86A13.52,13.52,0,0,0,307,308a12.34,12.34,0,0,0-1.27-6.2q-1.26-2.18-5-2.17Z"/><path d="M90.42,145.66c-6.49,3.44-11.72,9.13-15.44,15.4a46.23,46.23,0,0,0-6.55,21.25c-.35,7.43.89,15.56,4.45,22.15a23.85,23.85,0,0,0,20,12.38c17.29,1,30.44-13.94,37.82-27.9,4-7.55,6.74-16.12,6.31-24.74a34.48,34.48,0,0,0-8.77-21.87c-6.12-6.55-15.09-9.22-23.76-10.08A51.87,51.87,0,0,0,79.69,136a56.44,56.44,0,0,0-6.27,3,4.7,4.7,0,1,0,4.75,8.12c.8-.45,1.61-.89,2.44-1.3l1.15-.55c.24-.11,1.4-.63.62-.3a47.58,47.58,0,0,1,5.42-1.88,50,50,0,0,1,5.4-1.19c.24,0,1.62-.2.64-.1l1.27-.14c1-.09,2-.16,3-.19a48.44,48.44,0,0,1,5.52.12l1.27.12.84.1c-.07,0-.75-.12-.2,0,.91.16,1.82.3,2.72.49a37.22,37.22,0,0,1,5.68,1.63l.62.23c-.08,0-.61-.27-.12,0s.8.36,1.19.56a24,24,0,0,1,2.66,1.51c.41.27.81.56,1.2.84-.66-.47-.08-.05.21.2a22.59,22.59,0,0,1,1.87,1.79c.26.27.5.55.74.83s.67.86.19.2c.51.7,1,1.41,1.45,2.15a24.16,24.16,0,0,1,1.16,2.12c.17.33.31.67.48,1s-.09-.22-.11-.27l.27.7a30.75,30.75,0,0,1,1.4,4.87c.08.37.14.74.21,1.12a1.77,1.77,0,0,1,.08.56s-.09-.89,0-.32c.08.88.17,1.75.21,2.63a36.51,36.51,0,0,1-.22,5.33c-.11.92.09-.47-.07.45-.08.42-.15.84-.23,1.26-.19,1-.42,2-.68,2.92a52.16,52.16,0,0,1-1.78,5.29s-.28.7-.09.24-.14.31-.19.42c-.17.4-.35.79-.53,1.18-.43.92-.89,1.82-1.36,2.71-.88,1.66-1.84,3.27-2.85,4.85s-2,3-3.09,4.48c-.16.23-.92,1.18-.37.51-.26.32-.51.64-.77.95-.6.74-1.22,1.46-1.85,2.16a48.48,48.48,0,0,1-3.74,3.71c-.36.31-.71.62-1.08.91l-.47.38c.06,0,.59-.43.16-.12-.76.55-1.52,1.1-2.32,1.6s-1.37.83-2.08,1.21l-1.26.63c-.18.09-.37.16-.54.25-.62.3.72-.26.07,0a33.21,33.21,0,0,1-4.77,1.36c-.42.08-1.41.16-.45.09-.38,0-.76.08-1.14.1a23.79,23.79,0,0,1-2.67,0l-1.13-.08c-.94-.07.68.14-.24,0a25,25,0,0,1-2.56-.59c-.41-.12-.83-.26-1.24-.41l-.52-.2s.74.35.27.1c-.76-.43-1.54-.79-2.28-1.28-.15-.1-1-.75-.59-.4s-.38-.34-.5-.46a17.49,17.49,0,0,1-1.75-1.8l-.34-.42s.48.68.2.24-.48-.68-.71-1a19.19,19.19,0,0,1-1.14-2c-.19-.37-.36-.76-.54-1.14.35.74.08.18-.08-.22-.3-.81-.57-1.62-.8-2.45a42.36,42.36,0,0,1-1-4.73c-.15-.94.07.7,0-.24L78.06,189c-.08-.86-.14-1.73-.18-2.6a41.17,41.17,0,0,1,0-4.58,16.65,16.65,0,0,1,.21-2.24c-.17.8,0,.38,0-.14s.14-.81.22-1.22a41.86,41.86,0,0,1,1.24-4.68c.23-.7.47-1.38.73-2.06l.27-.69c0-.09.28-.66,0-.11s0,0,.06-.11l.3-.67a44.87,44.87,0,0,1,2.23-4.23c.41-.68.83-1.35,1.28-2l.73-1c.1-.15.21-.29.32-.44s.55-.73.18-.25.32-.38.42-.52l.82-1c.51-.58,1-1.14,1.59-1.69s1.1-1.07,1.67-1.58l.8-.68.4-.33c.44-.37-.7.51,0,0a32.36,32.36,0,0,1,3.75-2.36,4.74,4.74,0,0,0,1.69-6.43,4.8,4.8,0,0,0-6.44-1.69Z" fill="#ff6b60"/><rect x="57.79" y="138.72" width="87" height="71" fill="none" stroke="#000" stroke-linecap="round" stroke-linejoin="round"/><line x1="348.5" y1="368.25" x2="355.88" y2="375.33" fill="none" stroke="#000" stroke-miterlimit="10"/><circle cx="181.94" cy="5.56" r="4.54" fill="#fff" stroke="#000" stroke-linecap="round" stroke-linejoin="round"/></svg>