<svg xmlns="http://www.w3.org/2000/svg" width="1080" height="1080" viewBox="0 0 1080 1080"><g id="Layer_1" data-name="Layer 1"><path d="M247.49,469.2934a41.4469,41.4469,0,0,1-1.7553,4.261c-9.2016,19.0684-33.7626,29.4732-54.5722,20.81a42.4735,42.4735,0,0,1,16.0248-81.6955h.5379a43.6074,43.6074,0,0,1,37.8962,23.825,42.8269,42.8269,0,0,1,1.8686,4.4875h108.48V371.6439a16.1294,16.1294,0,0,1,15.3029-15.6,2.3021,2.3021,0,0,0,.3114-.0141q34.6545,0,69.3372-.1274V319.4216L388.43,302.4759l-.6229-.68a12.7182,12.7182,0,0,1-1.1325-1.4723,14.9589,14.9589,0,0,1-2.3782-7.8567v-44.946c-14.4818-5.3227-25.8775-18.9268-27.9443-34.3429a42.4939,42.4939,0,0,1,41.8174-48.1312h.5521a42.3238,42.3238,0,0,1,13.8872,82.29v39.2693l52.4771,16.9458.6371.68a14.5021,14.5021,0,0,1,1.1324,1.4722,14.9581,14.9581,0,0,1,2.3783,7.8567v42.228q28.3266-.106,56.639-.2265V311.1965c-.722-.2548-1.43-.5237-2.1518-.821a42.4616,42.4616,0,0,1-13.1794-69.79A42.7829,42.7829,0,0,1,539.7454,228.68a3.583,3.583,0,0,1,.5521,0,42.4584,42.4584,0,0,1,37.9953,60.8859,42.8643,42.8643,0,0,1-24.1081,21.2484v44.6632q28.3054-.0638,56.6249-.0425V313.5609a15.3344,15.3344,0,0,1,4.1477-10.0084l52.4913-16.9458V247.5639c-.722-.2548-1.43-.5238-2.1518-.821a42.4766,42.4766,0,0,1,16.0249-81.6955h.5521a42.4657,42.4657,0,0,1,37.9953,60.8858,42.8646,42.8646,0,0,1-24.108,21.2485v45.2857a15.3346,15.3346,0,0,1-4.1478,10.0085l-52.4912,16.9457v36.0842q34.8241.1273,69.6485.5379a11.4019,11.4019,0,0,1,1.9253.17,16.0621,16.0621,0,0,1,13.3776,15.1188V440.981H832.6382A42.7384,42.7384,0,0,1,843.1,424.5739a43.1919,43.1919,0,0,1,29.2184-11.9054h.5521a43.5973,43.5973,0,0,1,37.7687,23.5843,43.0775,43.0775,0,0,1,.2265,37.3016c-9.1873,19.0684-33.7484,29.4733-54.5722,20.81a43.485,43.485,0,0,1-23.6975-25.0706H724.0735v56.639H769.02a42.47,42.47,0,0,1,10.4614-16.4071A43.0227,43.0227,0,0,1,808.6854,497.62h.5522a43.5521,43.5521,0,0,1,38.5473,25.2122,43.0924,43.0924,0,0,1-1.359,37.2733c-9.7253,18.1624-33.5927,27.6046-53.7653,19.21a43.4868,43.4868,0,0,1-23.6975-25.0706h-44.89V610.87H832.6524a42.1842,42.1842,0,0,1,9.5554-15.501,42.9071,42.9071,0,0,1,30.11-12.8114h.5521a43.52,43.52,0,0,1,38.5332,25.2264,43.0869,43.0869,0,0,1-1.6,37.7263c-9.8811,17.9076-33.6493,27.01-53.51,18.7429a43.34,43.34,0,0,1-23.7258-25.0565H724.0735v69.3371a16.0854,16.0854,0,0,1-15.3028,15.6H639.1221v36.608l52.4912,16.96.637.6653a15.0077,15.0077,0,0,1,3.3833,7.4887,13.5969,13.5969,0,0,1,.1274,1.8544v45.0451a42.2636,42.2636,0,0,1,23.5418,59.47c-9.5837,18.4173-33.8333,28.0435-54.0059,19.6489A42.4545,42.4545,0,0,1,651.2115,842.99a42.6412,42.6412,0,0,1,16.2371-10.334V793.5705l-52.4912-16.9458-.637-.6795a13.8813,13.8813,0,0,1-1.1183-1.4722,15.1108,15.1108,0,0,1-2.3924-7.8709V724.1335H554.1849v45.0029A42.2521,42.2521,0,0,1,577.486,829.06c-9.7253,18.1483-33.5927,27.59-53.7653,19.1958a42.4616,42.4616,0,0,1-13.1794-69.79,42.5148,42.5148,0,0,1,15.3311-9.4281V724.1334h-56.639v42.4687a15.2991,15.2991,0,0,1-4.1477,10.0226L412.6086,793.57v39.1844a42.2537,42.2537,0,0,1,23.4144,59.6968c-9.6262,18.2473-33.6918,27.8311-53.8785,19.4223a42.465,42.465,0,0,1-13.3635-69.6061,42.4935,42.4935,0,0,1,15.5152-9.6121V787.71a15.319,15.319,0,0,1,4.1336-10.0085l52.4912-16.96V724.1335H371.5839a16.16,16.16,0,0,1-15.6-15.3029,2.0846,2.0846,0,0,1-.0142-.2973V639.1962H247.49a42.7662,42.7662,0,0,1-1.7554,4.261c-9.2015,19.0684-33.7625,29.4591-54.5721,20.7955a42.4722,42.4722,0,0,1,16.0248-81.6955h.5379a43.52,43.52,0,0,1,37.7829,23.5843A41.7156,41.7156,0,0,1,247.49,610.87H355.97V554.2448H311.1225a39.7519,39.7519,0,0,1-1.77,4.261c-9.1873,19.0684-33.7484,29.4732-54.5722,20.81A42.4759,42.4759,0,0,1,270.8056,497.62h.5521a43.4532,43.4532,0,0,1,37.7687,23.5843,40.7362,40.7362,0,0,1,1.996,4.7282H355.97v-56.639H247.49Zm434.016,389.1974a14.1617,14.1617,0,0,0-5.4076,27.2083c7.8,3.3126,18.0916-2.0244,19.4789-10.7871,1.26-7.8567-5.0537-16.223-13.7032-16.407A3.069,3.069,0,0,0,681.5056,858.4908Zm-283.1525,0a14.16,14.16,0,0,0-5.4077,27.2082c7.8,3.3126,18.0917-2.0243,19.479-10.787,1.26-7.8567-5.0538-16.223-13.7032-16.4071A3.0923,3.0923,0,0,0,398.3531,858.4908Zm141.5763-63.6184a14.1608,14.1608,0,0,0-5.4077,27.2082c7.8284,3.3125,18.1483-2.1093,19.4931-10.8862,1.2033-7.8567-5.1812-16.138-13.7174-16.3221ZM207.3567,610.87a14.1582,14.1582,0,0,0-5.3935,27.2083c7.8,3.3126,18.0775-2.0244,19.479-10.7871,1.2457-7.885-5.167-16.223-13.7032-16.4212Zm665.1454,0a14.1582,14.1582,0,0,0-5.4077,27.2083c7.8284,3.3126,18.1483-2.081,19.4931-10.8861,1.2032-7.8426-5.1812-16.124-13.7174-16.3222ZM270.9894,525.9324a14.1573,14.1573,0,0,0-5.4077,27.2082c7.8,3.2984,18.0775-2.0385,19.479-10.8012,1.26-7.885-5.167-16.223-13.7032-16.4071Zm537.88,0a14.1607,14.1607,0,0,0-5.4076,27.2082c7.8284,3.3125,18.1482-2.1093,19.493-10.8862,1.2033-7.8567-5.1811-16.138-13.7173-16.3221Zm63.6327-84.9514c-9.3148.0849-16.9734,11.0843-12.7548,20.13A14.69,14.69,0,0,0,877.938,468.26c7.3471-3.0153,11.0277-12.8538,7.0215-20.0027A14.3893,14.3893,0,0,0,872.87,440.981Zm-665.1453,0a14.1582,14.1582,0,0,0-5.3935,27.2082c7.8283,3.3125,18.1482-2.1093,19.4931-10.8861,1.1891-7.8284-5.1387-16.1239-13.7174-16.3221ZM539.9294,256.9924a14.1608,14.1608,0,0,0-5.4077,27.2082c7.8,3.2984,18.0917-2.0385,19.479-10.8012,1.26-7.8425-5.11-16.223-13.7032-16.407ZM681.5057,193.36a14.1617,14.1617,0,0,0-5.4077,27.2083c7.8,3.2984,18.0917-2.0244,19.479-10.787,1.26-7.8992-5.11-16.2231-13.7032-16.4212Zm-283.1525,0a14.1617,14.1617,0,0,0-5.4077,27.2083c7.8,3.2984,18.0916-2.0385,19.4789-10.787,1.26-7.8567-5.11-16.2231-13.7032-16.4212Z" fill="#1c7bc7" fill-rule="evenodd"/><path d="M475.5647,514.7109a6.9187,6.9187,0,0,1-6.7419,6.7418H414.3045a6.8182,6.8182,0,0,1-6.7383-6.7418V501.8158c0-4.5447,2.1972-6.7419,6.7383-6.7419,4.4016,0,6.5988,3.0775,6.5988,9.5259v3.371h41.1812V474.5566H414.598a6.7233,6.7233,0,0,1-6.7419-6.7418V422.3841a6.9183,6.9183,0,0,1,6.7419-6.74h54.2248a7.0237,7.0237,0,0,1,6.7419,6.74V432.937c0,4.3962-2.344,6.74-6.7419,6.74-4.5411,0-6.7383-2.3439-6.7383-6.74v-3.811H421.34v31.9487h47.483a7.1323,7.1323,0,0,1,6.7419,6.74Z" fill="#eaf5fd"/><path d="M570.985,415.644c4.398,0,6.7419,2.1972,6.7419,6.74,0,4.3979-2.3439,6.7419-6.7419,6.7419H546.2183v85.7316c0,4.5429-2.1972,6.7418-6.7383,6.7418-4.3979,0-6.7418-2.1989-6.7418-6.7418V429.126h-22.28c-4.3944,0-6.7383-2.344-6.7383-6.7419,0-4.5429,2.3439-6.74,6.7383-6.74Z" fill="#eaf5fd"/><path d="M467.5023,558.5545c4.5447,0,6.7419,2.1972,6.7419,6.74,0,4.3979-2.1972,6.7418-6.7419,6.7418H419.4361v30.3367h30.9217c4.398,0,6.7419,2.1972,6.7419,6.74s-2.3439,6.7418-6.7419,6.7418H419.4361v35.0263H470.29c4.5411,0,6.7383,2.1972,6.7383,6.74s-2.1972,6.7419-6.7383,6.7419H412.6942a6.819,6.819,0,0,1-6.7419-6.7419V565.2946a6.9183,6.9183,0,0,1,6.7419-6.74Z" fill="#eaf5fd"/><path d="M517.7872,562.8039l23.89,42.94,21.836-42.6466c1.3168-3.2242,3.2206-4.5429,6.4484-4.5429,3.9578,0,6.2981,3.5159,6.2981,7.4737v91.5931c0,4.5429-2.1972,6.7419-6.7383,6.7419-4.3979,0-6.7418-2.199-6.7418-6.7419V593.2855L548.5622,622.01c-1.4636,3.2242-3.6643,4.5429-6.5915,4.5429-2.641,0-4.8382-1.3187-6.4485-4.1027L518.6675,591.235v66.3863c0,4.5429-2.3439,6.7419-6.7418,6.7419-4.5447,0-6.7419-2.199-6.7419-6.7419V566.0282c0-4.8364,2.0541-7.4737,6.155-7.4737C514.1229,558.5545,516.1769,559.8732,517.7872,562.8039Z" fill="#eaf5fd"/><path d="M610.5373,624.0419c0-2.6341,1.317-4.0412,4.04-4.0412,2.6362,0,4.0412,1.4071,4.0412,4.0412v14.8475h51.3884c2.723,0,4.0411,1.317,4.0411,4.039,0,2.6362-1.3181,4.0412-4.0411,4.0412H618.6185v13.3525c0,2.634-1.405,4.0411-4.0412,4.0411-2.723,0-4.04-1.4071-4.04-4.0411Z" fill="#eaf5fd"/><path d="M610.5373,568.4268c0-5.0064,3.3376-8.52,8.2571-9.3993l51.2125-7.3788a3.9258,3.9258,0,0,1,3.9532,4.127c0,2.4624-1.1422,3.6035-3.4255,3.9553l-14.6706,2.3724v23.6291l14.6706,2.3723c2.2833.4376,3.4255,1.5787,3.4255,3.9511a3.9789,3.9789,0,0,1-3.9532,4.1291l-51.2125-7.3788c-4.9195-.8773-8.2571-4.4808-8.2571-9.3993Zm37.2454-5.1823L620.0245,567.02c-.9663.09-1.406.6177-1.406,1.4071v10.98c0,.7915.44,1.3192,1.406,1.405l27.7582,3.7794Z" fill="#eaf5fd"/><path d="M613.9628,517.0266l45.5026-25.476H614.5773c-2.723,0-4.04-1.317-4.04-4.0411,0-2.6341,1.317-4.039,4.04-4.039h53.497c3.1627,0,5.8858,2.1085,5.8858,5.1822,0,2.46-1.3181,4.305-3.9532,5.7979l-45.4146,25.2979h45.3266c2.7231,0,4.0412,1.3192,4.0412,4.0412,0,2.6362-1.3181,4.0411-4.0412,4.0411H615.9834a5.3093,5.3093,0,0,1-5.4461-5.4461C610.5373,520.1,611.6784,518.3457,613.9628,517.0266Z" fill="#eaf5fd"/><path d="M614.5773,451.0448h23.2795v-2.6362L612.1181,425.305a3.4033,3.4033,0,0,1-1.5808-3.0738,4.1056,4.1056,0,0,1,4.128-4.039,3.31,3.31,0,0,1,2.5482.9653l20.6433,19.3263V424.4277a8.9039,8.9039,0,0,1,8.96-8.7837h23.1025c2.7231,0,4.0412,1.317,4.0412,4.0412,0,2.7219-1.3181,4.0411-4.0412,4.0411H646.8164c-.6145,0-.8784.1737-.8784.7014v26.6171h23.9809c2.7231,0,4.0412,1.317,4.0412,4.0411,0,2.6341-1.3181,4.0412-4.0412,4.0412H614.5773c-2.723,0-4.04-1.4071-4.04-4.0412C610.5373,452.3618,611.8543,451.0448,614.5773,451.0448Z" fill="#eaf5fd"/></g></svg>