<svg xmlns="http://www.w3.org/2000/svg" width="130" height="130" viewBox="0 0 130 130"><rect width="130" height="130"/><path d="M57.43,48H49.78a.41.41,0,0,1-.41-.41V29.72a.4.4,0,0,0-.4-.41H47a.42.42,0,0,0-.41.4h0V50.41a.41.41,0,0,0,.41.41H57.43a.41.41,0,0,0,.42-.41h0v-2a.41.41,0,0,0-.42-.41h0" fill="#fff"/><path d="M49.82,54.38H47.75a.43.43,0,0,0-.42.43h0V75.46a.43.43,0,0,0,.42.43h2.07a.44.44,0,0,0,.42-.43h0V54.81a.44.44,0,0,0-.42-.43h0" fill="#fff"/><path d="M76.62,50.82h8.2a.41.41,0,0,0,.41-.41h0V48.25a.41.41,0,0,0-.41-.41H79.47a.41.41,0,0,1-.41-.42h0V32.57a.41.41,0,0,1,.41-.41h5.35a.41.41,0,0,0,.41-.41h0v-2a.41.41,0,0,0-.41-.41h-8.2a.42.42,0,0,0-.42.4h0V50.41a.41.41,0,0,0,.42.41h0" fill="#fff"/><path d="M42.19,56.92V54.84a.42.42,0,0,0-.42-.42H29.92a.41.41,0,0,0-.41.42V75.46a.42.42,0,0,0,.41.43H42.06a.42.42,0,0,0,.42-.43V64.13a.42.42,0,0,0-.42-.42h-4.6a.42.42,0,0,0-.42.42V66.2a.42.42,0,0,0,.42.42h1.69a.42.42,0,0,1,.42.42v5.53a.42.42,0,0,1-.42.42H32.86a.42.42,0,0,1-.42-.42V57.75a.42.42,0,0,1,.42-.39h8.91a.41.41,0,0,0,.42-.41" fill="#fff"/><path d="M29.93,100.69H45.27a.43.43,0,0,0,.42-.43V98.19a.42.42,0,0,0-.42-.42H32.86a.41.41,0,0,1-.42-.41h0V82.53a.42.42,0,0,1,.42-.42H45.27a.42.42,0,0,0,.42-.42V79.61a.41.41,0,0,0-.42-.41H29.93a.41.41,0,0,0-.42.41v20.65a.43.43,0,0,0,.42.43" fill="#fff"/><path d="M52.46,82.11h9.23a.42.42,0,0,1,.42.42V97.35a.42.42,0,0,1-.42.42H52.46a.42.42,0,0,1-.42-.42h0V82.53a.42.42,0,0,1,.42-.42m-2.91,18.58h15a.45.45,0,0,0,.43-.43V79.61a.43.43,0,0,0-.43-.41h-15a.43.43,0,0,0-.43.41v20.65a.45.45,0,0,0,.43.43" fill="#fff"/><path d="M40.57,48H32.78a.41.41,0,0,1-.41-.41V41.61a.41.41,0,0,1,.41-.41h7.79a.41.41,0,0,1,.42.41v5.94a.41.41,0,0,1-.41.41h0M32.78,32.21h5.35a.4.4,0,0,1,.41.4v5.32a.41.41,0,0,1-.41.41H32.78a.41.41,0,0,1-.41-.41V32.61a.4.4,0,0,1,.41-.4m10.65,6.13H41.81a.42.42,0,0,1-.41-.4h0V29.76a.41.41,0,0,0-.41-.41H29.92a.41.41,0,0,0-.41.41V50.41a.41.41,0,0,0,.41.41H43.46a.41.41,0,0,0,.41-.41h0V38.75a.41.41,0,0,0-.41-.41" fill="#fff"/><path d="M100.05,63.57H91.69a.41.41,0,0,1-.41-.42h0V57.74a.41.41,0,0,1,.41-.42h5.48a.41.41,0,0,1,.41.42v1.65a.42.42,0,0,0,.42.42h2.07a.42.42,0,0,0,.42-.42V54.83a.42.42,0,0,0-.42-.42H88.79a.42.42,0,0,0-.42.42V66a.44.44,0,0,0,.42.43h8.38a.41.41,0,0,1,.41.41h0v5.69a.41.41,0,0,1-.41.42H91.69a.41.41,0,0,1-.41-.42h0V71.07a.41.41,0,0,0-.42-.41H88.79a.41.41,0,0,0-.42.41v4.39a.43.43,0,0,0,.42.43h11.28a.43.43,0,0,0,.42-.43V64a.42.42,0,0,0-.42-.42" fill="#fff"/><path d="M58,57.31h5.45a.41.41,0,0,1,.41.41v5.41a.41.41,0,0,1-.41.42H58a.42.42,0,0,1-.42-.42V57.72a.41.41,0,0,1,.42-.41M69.24,75.46V64a.42.42,0,0,0-.42-.42H67.15a.42.42,0,0,1-.42-.42V54.82a.42.42,0,0,0-.42-.42H55a.42.42,0,0,0-.42.42V75.46a.44.44,0,0,0,.42.43h2.09a.43.43,0,0,0,.41-.43V66.88a.42.42,0,0,1,.42-.42h7.94a.42.42,0,0,1,.42.42v8.58a.44.44,0,0,0,.42.43H68.8a.43.43,0,0,0,.42-.43" fill="#fff"/><path d="M70,32.4v5.39a.41.41,0,0,1-.41.41H63.67a.41.41,0,0,1-.42-.41h0V32.4a.42.42,0,0,1,.42-.41h5.92a.41.41,0,0,1,.41.41h0m-6.33,8.9h5.92a.41.41,0,0,1,.41.41h0v8.7a.41.41,0,0,0,.41.41h2a.41.41,0,0,0,.41-.41h0V29.78a.41.41,0,0,0-.41-.41H60.81a.41.41,0,0,0-.42.41h0V50.41a.41.41,0,0,0,.42.41h2a.41.41,0,0,0,.41-.41h0v-8.7a.41.41,0,0,1,.42-.41h0" fill="#fff"/><path d="M91.85,41.36H97.2a.41.41,0,0,1,.41.41v8.64a.41.41,0,0,0,.41.41h2a.41.41,0,0,0,.41-.41V38.92a.41.41,0,0,0-.41-.41h-.82a.41.41,0,0,1-.41-.42V29.72a.42.42,0,0,0-.41-.41h-2a.42.42,0,0,0-.42.41v8.37a.41.41,0,0,1-.41.42H91.85a.42.42,0,0,1-.41-.42V29.72a.41.41,0,0,0-.41-.41H89a.41.41,0,0,0-.41.41V50.41a.41.41,0,0,0,.41.41h2a.41.41,0,0,0,.41-.41V41.77a.41.41,0,0,1,.41-.41" fill="#fff"/><path d="M75.73,54.41H73.66a.42.42,0,0,0-.42.42V75.46a.44.44,0,0,0,.42.43H83.93a.44.44,0,0,0,.42-.43V73.39a.41.41,0,0,0-.42-.41H76.6a.42.42,0,0,1-.42-.42V54.83a.42.42,0,0,0-.42-.42" fill="#fff"/><path d="M100.47,81.69V79.61a.41.41,0,0,0-.42-.41H87.73a.41.41,0,0,0-.41.41h0v20.65a.42.42,0,0,0,.41.43h12.32a.43.43,0,0,0,.42-.43V98.19a.42.42,0,0,0-.42-.42H90.64a.41.41,0,0,1-.41-.42h0V91.71a.41.41,0,0,1,.41-.41h9.41a.42.42,0,0,0,.42-.42v-2.1a.42.42,0,0,0-.42-.42H90.64a.41.41,0,0,1-.41-.42V82.53a.41.41,0,0,1,.41-.42h9.41a.42.42,0,0,0,.42-.42" fill="#fff"/><path d="M71.88,82.11h8.61a.42.42,0,0,1,.42.42V97.35a.42.42,0,0,1-.42.42H71.88a.41.41,0,0,1-.41-.42h0V82.53a.41.41,0,0,1,.41-.42m8.75-2.91H69a.41.41,0,0,0-.41.41v20.65a.42.42,0,0,0,.41.43H80.62a.43.43,0,0,0,.42-.43V98.35a.42.42,0,0,1,.42-.42h1.93a.42.42,0,0,0,.42-.42V82.41a.42.42,0,0,0-.42-.42H81.46a.42.42,0,0,1-.42-.42v-2a.41.41,0,0,0-.42-.41" fill="#fff"/></svg>