<svg xmlns="http://www.w3.org/2000/svg" width="654" height="186" viewBox="0 0 654 186"><path d="M133.29,136c1.44,18.66,1.44,27.41,1.44,37H91.88c0-2.08,0-4,.08-5.91a226.84,226.84,0,0,0-.73-24.89c-1.27-18.49-9.18-22.6-23.71-22.6H.13V85.87H69.56c18.36,0,27.53-5.63,27.53-20.52,0-13.1-9.17-21-27.53-21H.13V11.39H77.21c41.55,0,62.2,19.78,62.2,51.37,0,23.62-14.53,39-34.16,41.6C121.82,107.7,131.5,117.2,133.29,136Z" fill="#121212" fill-rule="evenodd"/><path d="M.13,172.91V147.83H45.44c7.57,0,9.21,5.65,9.21,9v16Z" fill="#121212"/><path d="M650.31,60.12H607.84L588.51,87.27,569.7,60.12H524.18l40.94,56.1-44.5,58.16h42.46l22.64-31,22.63,31h45.52l-44.76-59.95Z" fill="#121212"/><path d="M382.82,79.05C378,65.73,367.56,56.51,347.47,56.51c-17,0-29.24,7.68-35.35,20.24V59.58H270.93V173.85h41.19V117.74c0-17.17,4.84-28.44,18.31-28.44,12.46,0,15.52,8.2,15.52,23.83v60.72h41.19V117.74c0-17.17,4.58-28.44,18.31-28.44,12.46,0,15.26,8.2,15.26,23.83v60.72H461.9V102.11c0-23.83-9.15-45.6-40.43-45.6C402.4,56.51,388.92,66.24,382.82,79.05Z" fill="#121212"/><path d="M228,129.5c-3.81,9-10.93,12.81-22.12,12.81-12.46,0-22.63-6.66-23.65-20.75h79.59V110c0-31-20.09-57.13-58-57.13-35.34,0-61.79,25.87-61.79,62,0,36.38,25.94,58.41,62.3,58.41,30,0,50.86-14.6,56.71-40.73Zm-45.26-27.92c1.52-10.76,7.37-19,20.6-19,12.2,0,18.81,8.71,19.32,19Z" fill="#121212"/><path d="M475.38,60.34V174.61h41.19V60.34Zm-.26-10.76h41.71V13.2H475.12Z" fill="#121212"/></svg>